HIERARCHY
ROOT Hips
{
	OFFSET 0.000000 0.000000 0.000000
	CHANNELS 6 Xposition Yposition Zposition Zrotation Yrotation Xrotation 
	JOINT LowerBack
	{
		OFFSET 0.000000 0.000000 0.000000
		CHANNELS 3 Zrotation Yrotation Xrotation
		JOINT Spine
		{
			OFFSET 0.028270 2.035590 -0.193380
			CHANNELS 3 Zrotation Yrotation Xrotation
			JOINT Spine1
			{
				OFFSET 0.056720 2.048850 -0.042750
				CHANNELS 3 Zrotation Yrotation Xrotation
				JOINT Neck
				{
					OFFSET 0.000000 0.000000 0.000000
					CHANNELS 3 Zrotation Yrotation Xrotation
					JOINT Neck1
					{
						OFFSET -0.054170 1.746240 0.172020
						CHANNELS 3 Zrotation Yrotation Xrotation
						JOINT Head
						{
							OFFSET 0.104070 1.761360 -0.123970
							CHANNELS 3 Zrotation Yrotation Xrotation
							End Site
							{
								OFFSET 0.000000 0.000000 0.000000
							}
						}
					}
				}
				JOINT LeftShoulder
				{
					OFFSET 0.000000 0.000000 0.000000
					CHANNELS 3 Zrotation Yrotation Xrotation
					JOINT LeftArm
					{
						OFFSET 3.362410 1.200890 -0.311210
						CHANNELS 3 Zrotation Yrotation Xrotation
						JOINT LeftForeArm
						{
							OFFSET 4.983000 -0.000000 -0.000000
							CHANNELS 3 Zrotation Yrotation Xrotation
							JOINT LeftHand
							{
								OFFSET 3.483560 -0.000000 -0.000000
								CHANNELS 3 Zrotation Yrotation Xrotation
								JOINT LeftFingerBase
								{
									OFFSET 0.000000 0.000000 0.000000
									CHANNELS 3 Zrotation Yrotation Xrotation
									JOINT LeftHandIndex1
									{
										OFFSET 0.715260 -0.000000 -0.000000
										CHANNELS 3 Zrotation Yrotation Xrotation
										End Site
										{
											OFFSET 0.000000 0.000000 0.000000
										}
									}
								}
								JOINT LThumb
								{
									OFFSET 0.000000 0.000000 0.000000
									CHANNELS 3 Zrotation Yrotation Xrotation
									End Site
									{
										OFFSET 0.000000 0.000000 0.000000
									}
								}
							}
						}
					}
				}
				JOINT RightShoulder
				{
					OFFSET 0.000000 0.000000 0.000000
					CHANNELS 3 Zrotation Yrotation Xrotation
					JOINT RightArm
					{
						OFFSET -3.136600 1.374050 -0.404650
						CHANNELS 3 Zrotation Yrotation Xrotation
						JOINT RightForeArm
						{
							OFFSET -5.241900 -0.000000 -0.000000
							CHANNELS 3 Zrotation Yrotation Xrotation
							JOINT RightHand
							{
								OFFSET -3.444170 -0.000000 -0.000000
								CHANNELS 3 Zrotation Yrotation Xrotation
								JOINT RightFingerBase
								{
									OFFSET 0.000000 0.000000 0.000000
									CHANNELS 3 Zrotation Yrotation Xrotation
									JOINT RightHandIndex1
									{
										OFFSET -0.622530 -0.000000 -0.000000
										CHANNELS 3 Zrotation Yrotation Xrotation
										End Site
										{
											OFFSET 0.000000 0.000000 0.000000
										}
									}
								}
								JOINT RThumb
								{
									OFFSET 0.000000 0.000000 0.000000
									CHANNELS 3 Zrotation Yrotation Xrotation
									End Site
									{
										OFFSET 0.000000 0.000000 0.000000
									}
								}
							}
						}
					}
				}
			}
		}
	}
}
}
MOTION
Frames: 13
Frame Time: 0.008333
2.068107 16.624279 -2.607424 28.872695 83.354310 36.999542 5.346012 -7.018031 -5.208413 1.300386 -7.472217 -3.773478 -3.793715 -7.573021 0.968666 8.366360 -19.107344 -9.644840 -1.716723 -0.104175 -0.405712 0.000000 0.000000 0.000000 8.583230 1.479863 -0.787530 -17.328442 -25.884163 -17.454224 -0.337209 -77.677587 -0.120752 10.918503 0.567722 -0.006412 -0.061226 0.634229 -0.000000 0.000000 0.000000 0.000000 0.000000 0.000000 0.000000 9.463363 -19.137222 1.930946 57.567754 -33.266498 -29.991842 4.031930 22.304638 -0.004359 -4.112831 -0.600584 0.021241 0.183790 -0.040616 -0.000000 0.000000 0.000000 0.000000 0.000000 0.000000 0.000000 
2.226445 16.567633 -2.577279 25.187721 83.474029 33.247050 5.688646 -6.911827 -5.066293 1.306391 -7.390087 -3.759030 -4.019923 -7.482023 0.914710 8.678330 -19.017820 -9.685019 -1.851907 -0.115094 -0.417482 0.000000 0.000000 0.000000 8.447660 1.326049 -0.824126 -17.878065 -25.579378 -17.347385 -0.412088 -78.986987 -0.121312 10.955236 0.565508 -0.006680 -0.061588 0.635415 -0.000000 0.000000 0.000000 0.000000 0.000000 0.000000 0.000000 10.157708 -19.030766 1.966434 57.995428 -32.425234 -29.704307 4.018779 22.230767 -0.005010 -4.249221 -0.869436 0.032429 0.179515 -0.037036 -0.000000 0.000000 0.000000 0.000000 0.000000 0.000000 0.000000 
2.377025 16.510326 -2.546821 20.665908 83.569101 28.642680 6.066387 -6.796721 -4.849745 1.308226 -7.300892 -3.731482 -4.285000 -7.383284 0.845652 9.056505 -18.876588 -9.727451 -2.006047 -0.127497 -0.430843 0.000000 0.000000 0.000000 8.321695 1.114775 -0.849067 -18.444246 -25.216083 -17.234783 -0.488031 -80.321925 -0.122168 11.010853 0.503003 -0.012942 -0.062699 0.637416 -0.000000 0.000000 0.000000 0.000000 0.000000 0.000000 0.000000 10.969549 -18.874202 2.011922 58.458571 -31.427150 -29.453908 4.003592 22.071457 -0.005652 -4.339963 -1.162007 0.044715 0.174292 -0.033672 -0.000000 0.000000 0.000000 0.000000 0.000000 0.000000 0.000000 
2.519962 16.453407 -2.516457 15.040680 83.647277 22.916872 6.518095 -6.676123 -4.559983 1.315554 -7.210786 -3.692324 -4.586964 -7.283508 0.759670 9.486356 -18.680590 -9.765599 -2.179344 -0.141502 -0.444084 0.000000 0.000000 0.000000 8.197838 0.836050 -0.859803 -19.050187 -24.775374 -17.107058 -0.564999 -81.676909 -0.123382 11.089766 0.361209 -0.027198 -0.064625 0.640440 -0.000000 0.000000 0.000000 0.000000 0.000000 0.000000 0.000000 11.883038 -18.667674 2.066882 58.945919 -30.266632 -29.222642 3.984121 21.818622 -0.006202 -4.408609 -1.443909 0.056699 0.168166 -0.030744 -0.000000 0.000000 0.000000 0.000000 0.000000 0.000000 0.000000 
2.655544 16.397970 -2.486060 8.275753 83.733539 16.027121 7.056587 -6.565643 -4.201690 1.334250 -7.136258 -3.642665 -4.922258 -7.200007 0.655636 9.956124 -18.427022 -9.791002 -2.372433 -0.157269 -0.454917 0.000000 0.000000 0.000000 8.068467 0.479336 -0.853244 -19.708641 -24.252906 -16.949626 -0.641066 -83.034711 -0.124999 11.198064 0.129471 -0.050642 -0.067559 0.644530 -0.000000 0.000000 0.000000 0.000000 0.000000 0.000000 0.000000 12.890745 -18.417825 2.127839 59.443139 -28.948378 -28.974785 3.958056 21.471720 -0.006589 -4.482289 -1.684627 0.067383 0.161206 -0.028338 -0.000000 0.000000 0.000000 0.000000 0.000000 0.000000 0.000000 
2.784346 16.345004 -2.455493 0.451621 83.868128 8.049804 7.668595 -6.489683 -3.790475 1.366599 -7.100348 -3.585565 -5.282887 -7.156891 0.533848 10.450586 -18.114248 -9.793333 -2.584623 -0.174857 -0.460474 0.000000 0.000000 0.000000 7.927452 0.030813 -0.826200 -20.439540 -23.645374 -16.743631 -0.713638 -84.371641 -0.127003 11.339443 -0.195634 -0.084169 -0.071696 0.649573 -0.000000 0.000000 0.000000 0.000000 0.000000 0.000000 0.000000 13.978327 -18.136142 2.190491 59.939063 -27.482894 -28.673414 3.923194 21.032604 -0.006772 -4.585435 -1.862557 0.076166 0.153473 -0.026454 -0.000000 0.000000 0.000000 0.000000 0.000000 0.000000 0.000000 
2.907243 16.295398 -2.424667 -8.235751 84.079869 -0.819289 8.301377 -6.471089 -3.349105 1.407112 -7.121360 -3.525209 -5.656459 -7.173518 0.397158 10.952750 -17.742781 -9.762383 -2.813333 -0.194133 -0.457925 0.000000 0.000000 0.000000 7.771469 -0.513977 -0.776887 -21.269723 -22.961075 -16.468468 -0.779438 -85.651599 -0.129317 11.515046 -0.611940 -0.128270 -0.077187 0.655334 -0.000000 0.000000 0.000000 0.000000 0.000000 0.000000 0.000000 15.124667 -17.834897 2.250554 60.426025 -25.879971 -28.279106 3.877841 20.503825 -0.006740 -4.736485 -1.965132 0.082849 0.145028 -0.025023 -0.000000 0.000000 0.000000 0.000000 0.000000 0.000000 0.000000 
3.025095 16.249817 -2.393270 -17.273527 84.347285 -10.062922 8.860415 -6.513152 -2.899533 1.439153 -7.195379 -3.465217 -6.029721 -7.246392 0.250297 11.448757 -17.312678 -9.689628 -3.054589 -0.214781 -0.444961 0.000000 0.000000 0.000000 7.596877 -1.138233 -0.705727 -22.216316 -22.216109 -16.103148 -0.834035 -86.830268 -0.132071 11.726121 -1.107082 -0.182442 -0.084192 0.661289 -0.000000 0.000000 0.000000 0.000000 0.000000 0.000000 0.000000 16.309224 -17.515666 2.304666 60.900628 -24.151181 -27.748304 3.821299 19.895412 -0.006520 -4.944753 -1.991646 0.087434 0.135958 -0.023939 -0.000000 0.000000 0.000000 0.000000 0.000000 0.000000 0.000000 
3.138849 16.208854 -2.360722 -25.852168 84.597852 -18.857837 9.267043 -6.589882 -2.457368 1.444888 -7.291345 -3.408524 -6.393701 -7.343743 0.095880 11.927681 -16.819021 -9.566467 -3.304201 -0.236436 -0.419204 0.000000 0.000000 0.000000 7.398699 -1.815919 -0.614929 -23.283327 -21.409031 -15.630493 -0.874485 -87.870753 -0.134293 11.973910 -1.656682 -0.244986 -0.092797 0.666520 0.000000 0.000000 0.000000 0.000000 0.000000 0.000000 0.000000 17.512507 -17.160744 2.352080 61.364114 -22.316365 -27.039519 3.754523 19.227296 -0.006163 -5.207682 -1.951637 0.089921 0.126421 -0.023138 -0.000000 0.000000 0.000000 0.000000 0.000000 0.000000 0.000000 
3.249482 16.172880 -2.326803 -33.397399 84.767957 -26.609330 9.521983 -6.666690 -2.033905 1.422285 -7.375887 -3.357335 -6.740971 -7.431135 -0.062873 12.376743 -16.261193 -9.389669 -3.555785 -0.258498 -0.379630 0.000000 0.000000 0.000000 7.172419 -2.503241 -0.509244 -24.485194 -20.559291 -15.038375 -0.898357 -88.723547 -0.136518 12.258437 -2.235488 -0.314005 -0.102809 0.670186 0.000000 0.000000 0.000000 0.000000 0.000000 0.000000 0.000000 18.703989 -16.753381 2.392911 61.821291 -20.386877 -26.116976 3.680333 18.517999 -0.005747 -5.510278 -1.862037 0.090510 0.116714 -0.022653 -0.000000 0.000000 0.000000 0.000000 0.000000 0.000000 0.000000 
3.357951 16.142165 -2.291273 -39.468941 84.828421 -32.858594 9.657130 -6.718510 -1.640245 1.377127 -7.427537 -3.313523 -7.065708 -7.486175 -0.223906 12.785001 -15.637016 -9.157621 -3.803094 -0.280376 -0.325539 0.000000 0.000000 0.000000 6.912831 -3.164230 -0.392286 -25.827259 -19.682903 -14.322127 -0.905494 -89.342646 -0.138447 12.579523 -2.813285 -0.386706 -0.113957 0.671400 0.000000 0.000000 0.000000 0.000000 0.000000 0.000000 0.000000 19.854922 -16.278773 2.426588 62.280160 -18.380596 -24.953377 3.602517 17.791832 -0.005348 -5.825670 -1.743815 0.089303 0.107210 -0.022548 -0.000000 0.000000 0.000000 0.000000 0.000000 0.000000 0.000000 
3.465099 16.116889 -2.253899 -43.793680 84.777609 -37.317742 9.704053 -6.731799 -1.287524 1.317154 -7.435996 -3.277720 -7.361306 -7.497904 -0.382320 13.144904 -14.947843 -8.874905 -4.039110 -0.301363 -0.257962 0.000000 0.000000 0.000000 6.615572 -3.752865 -0.267732 -27.310143 -18.820365 -13.480448 -0.896650 -89.671440 -0.139808 12.937534 -3.361390 -0.460596 -0.125919 0.669446 -0.000000 0.000000 0.000000 0.000000 0.000000 0.000000 0.000000 20.938971 -15.729025 2.450633 62.749609 -16.309982 -23.528488 3.525149 17.074473 -0.005020 -6.117835 -1.616835 0.086597 0.098334 -0.022887 -0.000000 0.000000 0.000000 0.000000 0.000000 0.000000 0.000000 
3.571630 16.097194 -2.214701 -46.268258 84.622852 -39.874110 9.685285 -6.700010 -0.986316 1.248820 -7.396906 -3.251329 -7.622565 -7.461694 -0.537103 13.448318 -14.192568 -8.543661 -4.257792 -0.320914 -0.177237 0.000000 0.000000 0.000000 6.276864 -4.257647 -0.136445 -28.924222 -17.963155 -12.524703 -0.874003 -89.683580 -0.140495 13.331077 -3.847561 -0.531582 -0.138347 0.663454 -0.000000 0.000000 0.000000 0.000000 0.000000 0.000000 0.000000 21.927885 -15.094279 2.464868 63.243184 -14.192844 -21.840688 3.451693 16.390471 -0.004789 -6.345910 -1.491082 0.082595 0.090451 -0.023753 -0.000000 0.000000 0.000000 0.000000 0.000000 0.000000 0.000000 
